<svg width="69" height="16" viewBox="0 0 69 16" fill="none" xmlns="http://www.w3.org/2000/svg">
<path d="M8.67188 11.2793C8.67188 11.0254 8.63281 10.7975 8.55469 10.5957C8.48307 10.3874 8.34635 10.1986 8.14453 10.0293C7.94271 9.85352 7.65951 9.68099 7.29492 9.51172C6.93034 9.34245 6.45833 9.16667 5.87891 8.98438C5.23438 8.77604 4.6224 8.54167 4.04297 8.28125C3.47005 8.02083 2.96224 7.7181 2.51953 7.37305C2.08333 7.02148 1.73828 6.61458 1.48438 6.15234C1.23698 5.6901 1.11328 5.15299 1.11328 4.54102C1.11328 3.94857 1.24349 3.41146 1.50391 2.92969C1.76432 2.44141 2.12891 2.02474 2.59766 1.67969C3.06641 1.32812 3.61979 1.05794 4.25781 0.869141C4.90234 0.680339 5.60872 0.585938 6.37695 0.585938C7.42513 0.585938 8.33984 0.77474 9.12109 1.15234C9.90234 1.52995 10.5078 2.04753 10.9375 2.70508C11.3737 3.36263 11.5918 4.11458 11.5918 4.96094H8.68164C8.68164 4.54427 8.59375 4.17969 8.41797 3.86719C8.2487 3.54818 7.98828 3.29753 7.63672 3.11523C7.29167 2.93294 6.85547 2.8418 6.32812 2.8418C5.82031 2.8418 5.39714 2.91992 5.05859 3.07617C4.72005 3.22591 4.46615 3.43099 4.29688 3.69141C4.1276 3.94531 4.04297 4.23177 4.04297 4.55078C4.04297 4.79167 4.10156 5.00977 4.21875 5.20508C4.34245 5.40039 4.52474 5.58268 4.76562 5.75195C5.00651 5.92122 5.30273 6.08073 5.6543 6.23047C6.00586 6.38021 6.41276 6.52669 6.875 6.66992C7.64974 6.9043 8.33008 7.16797 8.91602 7.46094C9.50846 7.75391 10.0033 8.08268 10.4004 8.44727C10.7975 8.81185 11.097 9.22526 11.2988 9.6875C11.5007 10.1497 11.6016 10.6738 11.6016 11.2598C11.6016 11.8783 11.4811 12.4316 11.2402 12.9199C10.9993 13.4082 10.651 13.8216 10.1953 14.1602C9.73958 14.4987 9.19596 14.7559 8.56445 14.9316C7.93294 15.1074 7.22656 15.1953 6.44531 15.1953C5.74219 15.1953 5.04883 15.1042 4.36523 14.9219C3.68164 14.7331 3.0599 14.4499 2.5 14.0723C1.94661 13.6947 1.50391 13.2129 1.17188 12.627C0.839844 12.041 0.673828 11.3477 0.673828 10.5469H3.61328C3.61328 10.9896 3.68164 11.3639 3.81836 11.6699C3.95508 11.9759 4.14714 12.2233 4.39453 12.4121C4.64844 12.6009 4.94792 12.7376 5.29297 12.8223C5.64453 12.9069 6.02865 12.9492 6.44531 12.9492C6.95312 12.9492 7.36979 12.8776 7.69531 12.7344C8.02734 12.5911 8.27148 12.3926 8.42773 12.1387C8.59049 11.8848 8.67188 11.5983 8.67188 11.2793ZM25.166 0.78125V15H22.2363L16.5234 5.46875V15H13.5938V0.78125H16.5234L22.2461 10.3223V0.78125H25.166ZM37.2559 12.7148V15H29.6875V12.7148H37.2559ZM30.6445 0.78125V15H27.7148V0.78125H30.6445ZM36.2695 6.57227V8.79883H29.6875V6.57227H36.2695ZM37.2461 0.78125V3.07617H29.6875V0.78125H37.2461ZM44.7461 3.21289L40.8789 15H37.7637L43.0469 0.78125H45.0293L44.7461 3.21289ZM47.959 15L44.082 3.21289L43.7695 0.78125H45.7715L51.084 15H47.959ZM47.7832 9.70703V12.002H40.2734V9.70703H47.7832ZM55.332 0.78125V15H52.4023V0.78125H55.332ZM63.8477 0.78125L58.2129 7.80273L54.9609 11.2988L54.4336 8.52539L56.6309 5.51758L60.2539 0.78125H63.8477ZM60.5176 15L56.3281 8.42773L58.4961 6.61133L63.9844 15H60.5176ZM65.0781 13.6426C65.0781 13.2259 65.2214 12.8776 65.5078 12.5977C65.8008 12.3177 66.1882 12.1777 66.6699 12.1777C67.1517 12.1777 67.5358 12.3177 67.8223 12.5977C68.1152 12.8776 68.2617 13.2259 68.2617 13.6426C68.2617 14.0592 68.1152 14.4076 67.8223 14.6875C67.5358 14.9674 67.1517 15.1074 66.6699 15.1074C66.1882 15.1074 65.8008 14.9674 65.5078 14.6875C65.2214 14.4076 65.0781 14.0592 65.0781 13.6426Z" fill="#1F1F1F"/>
</svg>
